<mxfile host="app.diagrams.net" modified="2024-03-30T23:10:52.975Z" agent="Mozilla/5.0 (Windows NT 10.0; Win64; x64; rv:124.0) Gecko/20100101 Firefox/124.0" etag="m7AyRrxpayZoQfm7n1WC" version="24.1.0" type="device">
  <diagram name="Page-1" id="PvMmBn6i1ijl0CdpWlQL">
    <mxGraphModel dx="2130" dy="1844" grid="1" gridSize="10" guides="1" tooltips="1" connect="1" arrows="1" fold="1" page="1" pageScale="1" pageWidth="850" pageHeight="1100" math="0" shadow="0">
      <root>
        <mxCell id="0" />
        <mxCell id="1" parent="0" />
        <mxCell id="htWQr3QKB11t6zbesEdf-1" value="IDLE" style="swimlane;fontStyle=0;childLayout=stackLayout;horizontal=1;startSize=26;fillColor=none;horizontalStack=0;resizeParent=1;resizeParentMax=0;resizeLast=0;collapsible=1;marginBottom=0;whiteSpace=wrap;html=1;" parent="1" vertex="1">
          <mxGeometry x="-210" y="160" width="210" height="106" as="geometry" />
        </mxCell>
        <mxCell id="htWQr3QKB11t6zbesEdf-2" value="Entry /&amp;nbsp;&lt;br&gt;Exit / Move Request" style="text;html=1;align=center;verticalAlign=middle;resizable=0;points=[];autosize=1;strokeColor=none;fillColor=none;" parent="htWQr3QKB11t6zbesEdf-1" vertex="1">
          <mxGeometry y="26" width="210" height="40" as="geometry" />
        </mxCell>
        <mxCell id="htWQr3QKB11t6zbesEdf-50" value="Entry /&amp;nbsp;&lt;br&gt;Exit / Move Request" style="text;html=1;align=center;verticalAlign=middle;resizable=0;points=[];autosize=1;strokeColor=none;fillColor=none;" parent="htWQr3QKB11t6zbesEdf-1" vertex="1">
          <mxGeometry y="66" width="210" height="40" as="geometry" />
        </mxCell>
        <mxCell id="d21psSxY8Zwg0yVvmTkS-30" style="rounded=0;orthogonalLoop=1;jettySize=auto;html=1;exitX=1.012;exitY=0.304;exitDx=0;exitDy=0;entryX=0;entryY=0.5;entryDx=0;entryDy=0;exitPerimeter=0;" parent="1" source="htWQr3QKB11t6zbesEdf-30" target="d21psSxY8Zwg0yVvmTkS-28" edge="1">
          <mxGeometry relative="1" as="geometry">
            <mxPoint x="260" y="603" as="sourcePoint" />
          </mxGeometry>
        </mxCell>
        <mxCell id="htWQr3QKB11t6zbesEdf-11" value="LOADING_UNLOADING" style="swimlane;fontStyle=0;childLayout=stackLayout;horizontal=1;startSize=26;fillColor=none;horizontalStack=0;resizeParent=1;resizeParentMax=0;resizeLast=0;collapsible=1;marginBottom=0;whiteSpace=wrap;html=1;" parent="1" vertex="1">
          <mxGeometry x="-270" y="560" width="330" height="86" as="geometry" />
        </mxCell>
        <mxCell id="htWQr3QKB11t6zbesEdf-30" value="Entry / Floor Request has been successfuly made,&lt;br style=&quot;border-color: var(--border-color);&quot;&gt;&amp;nbsp;Elevator has arrived at destination &amp;amp; doors open&lt;br style=&quot;border-color: var(--border-color);&quot;&gt;Exit / Doors close" style="text;html=1;align=center;verticalAlign=middle;resizable=0;points=[];autosize=1;strokeColor=none;fillColor=none;" parent="htWQr3QKB11t6zbesEdf-11" vertex="1">
          <mxGeometry y="26" width="330" height="60" as="geometry" />
        </mxCell>
        <mxCell id="d21psSxY8Zwg0yVvmTkS-23" style="rounded=0;orthogonalLoop=1;jettySize=auto;html=1;exitX=0;exitY=0.5;exitDx=0;exitDy=0;endArrow=none;endFill=0;" parent="1" source="htWQr3QKB11t6zbesEdf-13" edge="1">
          <mxGeometry relative="1" as="geometry">
            <mxPoint x="-410" y="440" as="targetPoint" />
            <Array as="points">
              <mxPoint x="-410" y="343" />
            </Array>
          </mxGeometry>
        </mxCell>
        <mxCell id="htWQr3QKB11t6zbesEdf-13" value="MOVING_UP" style="swimlane;fontStyle=0;childLayout=stackLayout;horizontal=1;startSize=26;fillColor=none;horizontalStack=0;resizeParent=1;resizeParentMax=0;resizeLast=0;collapsible=1;marginBottom=0;whiteSpace=wrap;html=1;" parent="1" vertex="1">
          <mxGeometry x="-217.5" y="310" width="225" height="66" as="geometry" />
        </mxCell>
        <mxCell id="htWQr3QKB11t6zbesEdf-14" value="Entry / Floor Request is being executed&lt;br&gt;Exit / Elevator Arrives" style="text;html=1;align=center;verticalAlign=middle;resizable=0;points=[];autosize=1;strokeColor=none;fillColor=none;" parent="htWQr3QKB11t6zbesEdf-13" vertex="1">
          <mxGeometry y="26" width="225" height="40" as="geometry" />
        </mxCell>
        <mxCell id="htWQr3QKB11t6zbesEdf-15" style="edgeStyle=orthogonalEdgeStyle;rounded=0;orthogonalLoop=1;jettySize=auto;html=1;entryX=1;entryY=0.5;entryDx=0;entryDy=0;" parent="1" source="htWQr3QKB11t6zbesEdf-2" target="d21psSxY8Zwg0yVvmTkS-14" edge="1">
          <mxGeometry relative="1" as="geometry">
            <mxPoint x="230" y="206" as="targetPoint" />
            <Array as="points">
              <mxPoint x="290" y="206" />
              <mxPoint x="290" y="391" />
            </Array>
          </mxGeometry>
        </mxCell>
        <mxCell id="htWQr3QKB11t6zbesEdf-41" value="floorRequest()" style="text;html=1;strokeColor=none;fillColor=none;align=center;verticalAlign=middle;whiteSpace=wrap;rounded=0;" parent="1" vertex="1">
          <mxGeometry x="90" y="170" width="60" height="30" as="geometry" />
        </mxCell>
        <mxCell id="htWQr3QKB11t6zbesEdf-42" value="parseRequests() chooseElevator()" style="text;html=1;strokeColor=none;fillColor=none;align=center;verticalAlign=middle;whiteSpace=wrap;rounded=0;" parent="1" vertex="1">
          <mxGeometry x="320" y="280" width="60" height="30" as="geometry" />
        </mxCell>
        <mxCell id="htWQr3QKB11t6zbesEdf-43" value="Motor : move()" style="text;html=1;strokeColor=none;fillColor=none;align=center;verticalAlign=middle;whiteSpace=wrap;rounded=0;" parent="1" vertex="1">
          <mxGeometry x="200" y="350" width="60" height="30" as="geometry" />
        </mxCell>
        <mxCell id="htWQr3QKB11t6zbesEdf-44" value="[elevator.getCurrentFloor() == floorNum]" style="text;html=1;strokeColor=none;fillColor=none;align=center;verticalAlign=middle;whiteSpace=wrap;rounded=0;" parent="1" vertex="1">
          <mxGeometry x="-380" y="510" width="120" height="30" as="geometry" />
        </mxCell>
        <mxCell id="htWQr3QKB11t6zbesEdf-52" value="Initialization" style="swimlane;fontStyle=0;childLayout=stackLayout;horizontal=1;startSize=26;fillColor=none;horizontalStack=0;resizeParent=1;resizeParentMax=0;resizeLast=0;collapsible=1;marginBottom=0;whiteSpace=wrap;html=1;" parent="1" vertex="1">
          <mxGeometry x="-210" y="20" width="210" height="56" as="geometry" />
        </mxCell>
        <mxCell id="htWQr3QKB11t6zbesEdf-53" value="Exit // Initializing Elevators" style="text;html=1;align=center;verticalAlign=middle;resizable=0;points=[];autosize=1;strokeColor=none;fillColor=none;" parent="htWQr3QKB11t6zbesEdf-52" vertex="1">
          <mxGeometry y="26" width="210" height="30" as="geometry" />
        </mxCell>
        <mxCell id="htWQr3QKB11t6zbesEdf-55" style="edgeStyle=orthogonalEdgeStyle;rounded=0;orthogonalLoop=1;jettySize=auto;html=1;" parent="1" source="htWQr3QKB11t6zbesEdf-53" edge="1">
          <mxGeometry relative="1" as="geometry">
            <mxPoint x="-105" y="150" as="targetPoint" />
          </mxGeometry>
        </mxCell>
        <mxCell id="htWQr3QKB11t6zbesEdf-56" value="&lt;div style=&quot;color: rgb(204, 204, 204); background-color: rgb(31, 31, 31); font-family: Consolas, &amp;quot;Courier New&amp;quot;, monospace; font-size: 14px; line-height: 19px;&quot;&gt;&lt;br&gt;&lt;/div&gt;" style="text;html=1;align=center;verticalAlign=middle;whiteSpace=wrap;rounded=0;" parent="1" vertex="1">
          <mxGeometry x="20" y="90" width="60" height="30" as="geometry" />
        </mxCell>
        <mxCell id="htWQr3QKB11t6zbesEdf-57" value="InitializeFloorAndElevators()" style="text;html=1;strokeColor=none;fillColor=none;align=center;verticalAlign=middle;whiteSpace=wrap;rounded=0;" parent="1" vertex="1">
          <mxGeometry x="-235" y="85" width="105" height="40" as="geometry" />
        </mxCell>
        <mxCell id="zfVeeJ4_6bXh-RXef8P0-2" value="Running" style="shape=umlFrame;whiteSpace=wrap;html=1;pointerEvents=0;" parent="1" vertex="1">
          <mxGeometry x="-660" y="130" width="1165" height="630" as="geometry" />
        </mxCell>
        <mxCell id="d21psSxY8Zwg0yVvmTkS-1" value="" style="ellipse;html=1;shape=startState;fillColor=#000000;strokeColor=#000000;" parent="1" vertex="1">
          <mxGeometry x="-120" y="-66" width="30" height="30" as="geometry" />
        </mxCell>
        <mxCell id="d21psSxY8Zwg0yVvmTkS-2" value="" style="edgeStyle=orthogonalEdgeStyle;html=1;verticalAlign=bottom;endArrow=open;endSize=8;strokeColor=#000000;rounded=0;entryX=0.5;entryY=0;entryDx=0;entryDy=0;" parent="1" source="d21psSxY8Zwg0yVvmTkS-1" target="htWQr3QKB11t6zbesEdf-52" edge="1">
          <mxGeometry relative="1" as="geometry">
            <mxPoint x="-95" y="24" as="targetPoint" />
          </mxGeometry>
        </mxCell>
        <mxCell id="d21psSxY8Zwg0yVvmTkS-24" style="rounded=0;orthogonalLoop=1;jettySize=auto;html=1;exitX=0;exitY=0.5;exitDx=0;exitDy=0;entryX=0;entryY=0.245;entryDx=0;entryDy=0;entryPerimeter=0;" parent="1" source="d21psSxY8Zwg0yVvmTkS-12" target="htWQr3QKB11t6zbesEdf-30" edge="1">
          <mxGeometry relative="1" as="geometry">
            <mxPoint x="-340" y="406" as="targetPoint" />
            <Array as="points">
              <mxPoint x="-410" y="434" />
              <mxPoint x="-410" y="600" />
            </Array>
          </mxGeometry>
        </mxCell>
        <mxCell id="d21psSxY8Zwg0yVvmTkS-12" value="MOVING_DOWN" style="swimlane;fontStyle=0;childLayout=stackLayout;horizontal=1;startSize=26;fillColor=none;horizontalStack=0;resizeParent=1;resizeParentMax=0;resizeLast=0;collapsible=1;marginBottom=0;whiteSpace=wrap;html=1;" parent="1" vertex="1">
          <mxGeometry x="-217.5" y="401" width="225" height="66" as="geometry" />
        </mxCell>
        <mxCell id="d21psSxY8Zwg0yVvmTkS-13" value="Entry / Floor Request is being executed&lt;br&gt;Exit / Elevator Arrives" style="text;html=1;align=center;verticalAlign=middle;resizable=0;points=[];autosize=1;strokeColor=none;fillColor=none;" parent="d21psSxY8Zwg0yVvmTkS-12" vertex="1">
          <mxGeometry y="26" width="225" height="40" as="geometry" />
        </mxCell>
        <mxCell id="d21psSxY8Zwg0yVvmTkS-18" style="rounded=0;orthogonalLoop=1;jettySize=auto;html=1;exitX=0;exitY=1;exitDx=0;exitDy=0;entryX=1;entryY=0.5;entryDx=0;entryDy=0;" parent="1" source="d21psSxY8Zwg0yVvmTkS-14" target="d21psSxY8Zwg0yVvmTkS-12" edge="1">
          <mxGeometry relative="1" as="geometry" />
        </mxCell>
        <mxCell id="d21psSxY8Zwg0yVvmTkS-14" value="" style="ellipse;whiteSpace=wrap;html=1;aspect=fixed;" parent="1" vertex="1">
          <mxGeometry x="140" y="376" width="30" height="30" as="geometry" />
        </mxCell>
        <mxCell id="d21psSxY8Zwg0yVvmTkS-16" style="rounded=0;orthogonalLoop=1;jettySize=auto;html=1;exitX=0;exitY=0;exitDx=0;exitDy=0;entryX=1.007;entryY=0.266;entryDx=0;entryDy=0;entryPerimeter=0;" parent="1" source="d21psSxY8Zwg0yVvmTkS-14" target="htWQr3QKB11t6zbesEdf-14" edge="1">
          <mxGeometry relative="1" as="geometry" />
        </mxCell>
        <mxCell id="d21psSxY8Zwg0yVvmTkS-19" value="[currentFloor &amp;lt; floorNum]" style="text;html=1;align=center;verticalAlign=middle;resizable=0;points=[];autosize=1;strokeColor=none;fillColor=none;" parent="1" vertex="1">
          <mxGeometry x="15" y="320" width="160" height="30" as="geometry" />
        </mxCell>
        <mxCell id="d21psSxY8Zwg0yVvmTkS-20" value="[currentFloor &amp;gt;= floorNum]" style="text;html=1;align=center;verticalAlign=middle;resizable=0;points=[];autosize=1;strokeColor=none;fillColor=none;" parent="1" vertex="1">
          <mxGeometry x="15" y="437" width="170" height="30" as="geometry" />
        </mxCell>
        <mxCell id="d21psSxY8Zwg0yVvmTkS-31" style="edgeStyle=orthogonalEdgeStyle;rounded=0;orthogonalLoop=1;jettySize=auto;html=1;exitX=1;exitY=0;exitDx=0;exitDy=0;" parent="1" source="d21psSxY8Zwg0yVvmTkS-28" edge="1">
          <mxGeometry relative="1" as="geometry">
            <Array as="points">
              <mxPoint x="451" y="539" />
              <mxPoint x="450" y="206" />
            </Array>
            <mxPoint x="290" y="206" as="targetPoint" />
          </mxGeometry>
        </mxCell>
        <mxCell id="d21psSxY8Zwg0yVvmTkS-28" value="" style="ellipse;whiteSpace=wrap;html=1;aspect=fixed;" parent="1" vertex="1">
          <mxGeometry x="425" y="588" width="30" height="30" as="geometry" />
        </mxCell>
        <mxCell id="d21psSxY8Zwg0yVvmTkS-33" style="edgeStyle=orthogonalEdgeStyle;rounded=0;orthogonalLoop=1;jettySize=auto;html=1;exitX=1;exitY=1;exitDx=0;exitDy=0;entryX=-0.005;entryY=0.81;entryDx=0;entryDy=0;entryPerimeter=0;" parent="1" source="d21psSxY8Zwg0yVvmTkS-28" target="htWQr3QKB11t6zbesEdf-2" edge="1">
          <mxGeometry relative="1" as="geometry">
            <Array as="points">
              <mxPoint x="451" y="700" />
              <mxPoint x="-600" y="700" />
              <mxPoint x="-600" y="218" />
            </Array>
          </mxGeometry>
        </mxCell>
        <mxCell id="d21psSxY8Zwg0yVvmTkS-34" value="[isFloorRequest()]" style="text;html=1;align=center;verticalAlign=middle;resizable=0;points=[];autosize=1;strokeColor=none;fillColor=none;" parent="1" vertex="1">
          <mxGeometry x="335" y="523" width="120" height="30" as="geometry" />
        </mxCell>
        <mxCell id="d21psSxY8Zwg0yVvmTkS-35" value="[else]" style="text;html=1;align=center;verticalAlign=middle;resizable=0;points=[];autosize=1;strokeColor=none;fillColor=none;" parent="1" vertex="1">
          <mxGeometry x="390" y="646" width="50" height="30" as="geometry" />
        </mxCell>
      </root>
    </mxGraphModel>
  </diagram>
</mxfile>
